# xmcd
#
# Track frame offsets: 
#        150
#        30962
#        43531
#        55267
#        74193
#        87698
#        99733
#        111143
#        144352
#        158833
#        193752
#        205798
#        249174
#
# Disc length: 3532 seconds
#
# Revision: 0
# Processed by: cddbd v1.5.2PL0 Copyright (c) Steve Scherf et al.
# Submitted via: ExactAudioCopy v0.95b3
#
DISCID=b50dca0d
DTITLE=Frank Sinatra  - Capitol Outtakes and Masters - Disc 1
DYEAR=1900
DGENRE=
TTITLE0=What Is This Thing Called Love - alt. 1
TTITLE1=What Is This Thing Called Love - alt. 2
TTITLE2=What Is This Thing Called Love - master
TTITLE3=The Tender Trap - alt.
TTITLE4=The Tender Trap - master
TTITLE5=I Thought About You - alt.
TTITLE6=I Thought About You - master
TTITLE7=I Got Plenty O' Nuttin' - alt.
TTITLE8=I Got Plenty O' Nuttin' - master
TTITLE9=Stars Fell On Alabama - alt.
TTITLE10=Stars Fell On Alabama - master
TTITLE11=Moonlight In Vermont - alt.
TTITLE12=Moonlight In Vermont - master
EXTD=
EXTT0=
EXTT1=
EXTT2=
EXTT3=
EXTT4=
EXTT5=
EXTT6=
EXTT7=
EXTT8=
EXTT9=
EXTT10=
EXTT11=
EXTT12=
PLAYORDER=
